<svg xmlns="http://www.w3.org/2000/svg" viewBox="0 0 650 550" fill="none">
  <defs>
    <filter id="s1" x="-8%" y="-8%" width="120%" height="120%">
      <feDropShadow dx="0" dy="3" stdDeviation="6" flood-color="#000" flood-opacity="0.08"/>
    </filter>
    <filter id="s2" x="-10%" y="-10%" width="130%" height="130%">
      <feDropShadow dx="0" dy="6" stdDeviation="14" flood-color="#000" flood-opacity="0.12"/>
    </filter>
    <filter id="glow" x="-20%" y="-20%" width="140%" height="140%">
      <feGaussianBlur stdDeviation="3" result="blur"/>
      <feMerge><feMergeNode in="blur"/><feMergeNode in="SourceGraphic"/></feMerge>
    </filter>
    <linearGradient id="cg" x1="0" y1="0" x2="1" y2="1">
      <stop offset="0%" stop-color="#ffffff"/>
      <stop offset="100%" stop-color="#faf8ff"/>
    </linearGradient>
    <linearGradient id="pg" x1="0" y1="0" x2="1" y2="0">
      <stop offset="0%" stop-color="#7c3aed"/>
      <stop offset="100%" stop-color="#a78bfa"/>
    </linearGradient>
    <linearGradient id="chg" x1="0" y1="1" x2="0" y2="0">
      <stop offset="0%" stop-color="#7c3aed" stop-opacity="0.05"/>
      <stop offset="100%" stop-color="#7c3aed" stop-opacity="0.35"/>
    </linearGradient>
    <linearGradient id="pinkG" x1="0" y1="0" x2="0" y2="1">
      <stop offset="0%" stop-color="#ec4899"/>
      <stop offset="100%" stop-color="#f472b6"/>
    </linearGradient>
    <linearGradient id="cakeG" x1="0" y1="0" x2="0" y2="1">
      <stop offset="0%" stop-color="#fbbf24"/>
      <stop offset="100%" stop-color="#f59e0b"/>
    </linearGradient>
    <linearGradient id="mintG" x1="0" y1="0" x2="0" y2="1">
      <stop offset="0%" stop-color="#34d399"/>
      <stop offset="100%" stop-color="#10b981"/>
    </linearGradient>
  </defs>

  <!-- ========== MAIN DASHBOARD CARD ========== -->
  <g filter="s2">
    <rect x="30" y="20" width="590" height="510" rx="18" fill="url(#cg)" stroke="#e8e5f0" stroke-width="1"/>
  </g>

  <!-- Top Navigation Bar -->
  <rect x="30" y="20" width="590" height="52" rx="18" fill="#1e1b4b"/>
  <rect x="30" y="50" width="590" height="22" fill="#1e1b4b"/>

  <!-- Cronos Brand -->
  <!-- Cupcake mini icon -->
  <circle cx="58" cy="48" r="10" fill="#7c3aed"/>
  <ellipse cx="58" cy="44" rx="7" ry="5" fill="#f9a8d4"/>
  <ellipse cx="58" cy="43" rx="4" ry="3" fill="#fde68a"/>
  <circle cx="58" cy="41" r="1.5" fill="#f43f5e"/>
  <text x="76" y="53" font-family="Arial, sans-serif" font-size="15" font-weight="bold" fill="#ffffff" letter-spacing="1.5">CRONOS</text>
  <text x="148" y="53" font-family="Arial, sans-serif" font-size="9" fill="#c4b5fd">Repostería</text>

  <!-- Nav pills -->
  <rect x="280" y="42" width="44" height="5" rx="2.5" fill="#7c3aed"/>
  <rect x="334" y="42" width="36" height="5" rx="2.5" fill="#6b7280" opacity="0.3"/>
  <rect x="380" y="42" width="40" height="5" rx="2.5" fill="#6b7280" opacity="0.3"/>
  <rect x="430" y="42" width="32" height="5" rx="2.5" fill="#6b7280" opacity="0.3"/>

  <!-- Bell icon -->
  <circle cx="560" cy="48" r="9" fill="#312e81"/>
  <path d="M556 48 q0 -5 4 -6 q4 1 4 6 l1 3 h-10 z" fill="#a78bfa" stroke="none"/>
  <circle cx="560" cy="55" r="1.5" fill="#a78bfa"/>
  <circle cx="565" cy="42" r="3.5" fill="#f43f5e"/>
  <text x="565" y="44.5" font-family="Arial, sans-serif" font-size="6" fill="white" text-anchor="middle">3</text>

  <!-- Avatar -->
  <circle cx="590" cy="48" r="12" fill="#7c3aed"/>
  <circle cx="590" cy="45" r="4" fill="#e0d5ff"/>
  <ellipse cx="590" cy="56" rx="7" ry="4" fill="#e0d5ff"/>

  <!-- ========== ROW 1: STAT CARDS ========== -->

  <!-- Card 1: Pedidos del Día -->
  <g filter="s1">
    <rect x="50" y="86" width="170" height="88" rx="14" fill="white" stroke="#f3f0fa" stroke-width="1"/>
  </g>
  <!-- Order/receipt icon -->
  <rect x="65" y="100" width="30" height="30" rx="8" fill="#fce7f3"/>
  <rect x="73" y="107" width="14" height="2" rx="1" fill="#ec4899"/>
  <rect x="73" y="112" width="10" height="2" rx="1" fill="#f9a8d4"/>
  <rect x="73" y="117" width="12" height="2" rx="1" fill="#ec4899"/>
  <rect x="73" y="122" width="8" height="2" rx="1" fill="#f9a8d4"/>
  <text x="105" y="107" font-family="Arial, sans-serif" font-size="9" fill="#9ca3af">Pedidos Hoy</text>
  <text x="105" y="126" font-family="Arial, sans-serif" font-size="22" font-weight="bold" fill="#1e1b4b">48</text>
  <rect x="105" y="135" width="40" height="12" rx="6" fill="#dcfce7"/>
  <text x="113" y="144" font-family="Arial, sans-serif" font-size="8" font-weight="600" fill="#16a34a">+18%</text>
  <text x="156" y="144" font-family="Arial, sans-serif" font-size="7" fill="#9ca3af">vs ayer</text>

  <!-- Card 2: Producción -->
  <g filter="s1">
    <rect x="235" y="86" width="170" height="88" rx="14" fill="white" stroke="#f3f0fa" stroke-width="1"/>
  </g>
  <!-- Cake icon -->
  <rect x="250" y="100" width="30" height="30" rx="8" fill="#fef3c7"/>
  <!-- Cake layers -->
  <rect x="258" y="119" width="14" height="4" rx="1" fill="#f59e0b"/>
  <rect x="260" y="114" width="10" height="5" rx="1" fill="#fbbf24"/>
  <rect x="262" y="109" width="6" height="5" rx="1" fill="#fcd34d"/>
  <!-- Cherry -->
  <circle cx="265" cy="108" r="2" fill="#ef4444"/>
  <path d="M265 106 q2 -3 4 -2" stroke="#16a34a" stroke-width="0.8" fill="none"/>
  <text x="290" y="107" font-family="Arial, sans-serif" font-size="9" fill="#9ca3af">Producción</text>
  <text x="290" y="126" font-family="Arial, sans-serif" font-size="22" font-weight="bold" fill="#1e1b4b">156</text>
  <rect x="290" y="135" width="48" height="12" rx="6" fill="#dbeafe"/>
  <text x="298" y="144" font-family="Arial, sans-serif" font-size="8" font-weight="600" fill="#2563eb">Unidades</text>

  <!-- Card 3: Inventario -->
  <g filter="s1">
    <rect x="420" y="86" width="180" height="88" rx="14" fill="white" stroke="#f3f0fa" stroke-width="1"/>
  </g>
  <!-- Warehouse/box icon -->
  <rect x="435" y="100" width="30" height="30" rx="8" fill="#e0e7ff"/>
  <rect x="442" y="108" width="16" height="12" rx="2" fill="none" stroke="#6366f1" stroke-width="1.8"/>
  <path d="M442 113 h16" stroke="#6366f1" stroke-width="1.2"/>
  <path d="M450 108 v12" stroke="#6366f1" stroke-width="1.2"/>
  <rect x="447" y="111" width="6" height="4" rx="1" fill="#a5b4fc"/>
  <text x="475" y="107" font-family="Arial, sans-serif" font-size="9" fill="#9ca3af">Inventario</text>
  <text x="475" y="126" font-family="Arial, sans-serif" font-size="22" font-weight="bold" fill="#1e1b4b">324</text>
  <rect x="475" y="135" width="50" height="12" rx="6" fill="#fef3c7"/>
  <text x="483" y="144" font-family="Arial, sans-serif" font-size="8" font-weight="600" fill="#d97706">12 bajos</text>

  <!-- ========== ROW 2: CHART + PRODUCTOS TOP ========== -->

  <!-- Sales Chart Card -->
  <g filter="s1">
    <rect x="50" y="190" width="340" height="195" rx="14" fill="white" stroke="#f3f0fa" stroke-width="1"/>
  </g>
  <text x="72" y="216" font-family="Arial, sans-serif" font-size="12" font-weight="bold" fill="#1e1b4b">Ventas Semanales</text>
  <text x="72" y="232" font-family="Arial, sans-serif" font-size="9" fill="#9ca3af">Ingresos por día en productos</text>

  <!-- Y-axis labels -->
  <text x="60" y="260" font-family="Arial, sans-serif" font-size="7" fill="#c4b5fd">$800</text>
  <text x="60" y="290" font-family="Arial, sans-serif" font-size="7" fill="#c4b5fd">$600</text>
  <text x="60" y="320" font-family="Arial, sans-serif" font-size="7" fill="#c4b5fd">$400</text>
  <text x="60" y="350" font-family="Arial, sans-serif" font-size="7" fill="#c4b5fd">$200</text>

  <!-- Grid -->
  <line x1="85" y1="257" x2="375" y2="257" stroke="#f5f3ff" stroke-width="1"/>
  <line x1="85" y1="287" x2="375" y2="287" stroke="#f5f3ff" stroke-width="1"/>
  <line x1="85" y1="317" x2="375" y2="317" stroke="#f5f3ff" stroke-width="1"/>
  <line x1="85" y1="347" x2="375" y2="347" stroke="#f5f3ff" stroke-width="1"/>
  <line x1="85" y1="367" x2="375" y2="367" stroke="#f5f3ff" stroke-width="1"/>

  <!-- Bar chart - Pasteles -->
  <rect x="100" y="295" width="14" height="72" rx="3" fill="#7c3aed" opacity="0.85"/>
  <rect x="145" y="270" width="14" height="97" rx="3" fill="#7c3aed" opacity="0.85"/>
  <rect x="190" y="310" width="14" height="57" rx="3" fill="#7c3aed" opacity="0.85"/>
  <rect x="235" y="260" width="14" height="107" rx="3" fill="#7c3aed"/>
  <rect x="280" y="280" width="14" height="87" rx="3" fill="#7c3aed" opacity="0.85"/>
  <rect x="325" y="300" width="14" height="67" rx="3" fill="#7c3aed" opacity="0.85"/>

  <!-- Bar chart - Cupcakes -->
  <rect x="118" y="320" width="14" height="47" rx="3" fill="#f472b6" opacity="0.8"/>
  <rect x="163" y="305" width="14" height="62" rx="3" fill="#f472b6" opacity="0.8"/>
  <rect x="208" y="330" width="14" height="37" rx="3" fill="#f472b6" opacity="0.8"/>
  <rect x="253" y="290" width="14" height="77" rx="3" fill="#f472b6" opacity="0.8"/>
  <rect x="298" y="315" width="14" height="52" rx="3" fill="#f472b6" opacity="0.8"/>
  <rect x="343" y="325" width="14" height="42" rx="3" fill="#f472b6" opacity="0.8"/>

  <!-- Highlight best day -->
  <rect x="231" y="248" width="22" height="16" rx="4" fill="#1e1b4b"/>
  <text x="242" y="260" font-family="Arial, sans-serif" font-size="8" fill="white" text-anchor="middle">$820</text>
  <polygon points="239,264 242,268 245,264" fill="#1e1b4b"/>

  <!-- X axis labels -->
  <text x="106" y="378" font-family="Arial, sans-serif" font-size="8" fill="#a78bfa" text-anchor="middle">Lun</text>
  <text x="152" y="378" font-family="Arial, sans-serif" font-size="8" fill="#a78bfa" text-anchor="middle">Mar</text>
  <text x="198" y="378" font-family="Arial, sans-serif" font-size="8" fill="#a78bfa" text-anchor="middle">Mie</text>
  <text x="244" y="378" font-family="Arial, sans-serif" font-size="8" fill="#a78bfa" font-weight="bold" text-anchor="middle">Jue</text>
  <text x="290" y="378" font-family="Arial, sans-serif" font-size="8" fill="#a78bfa" text-anchor="middle">Vie</text>
  <text x="336" y="378" font-family="Arial, sans-serif" font-size="8" fill="#a78bfa" text-anchor="middle">Sab</text>

  <!-- Legend -->
  <circle cx="280" y="222" cx="280" cy="222" r="4" fill="#7c3aed"/>
  <text x="288" y="225" font-family="Arial, sans-serif" font-size="8" fill="#6b7280">Pasteles</text>
  <circle cx="335" cy="222" r="4" fill="#f472b6"/>
  <text x="343" y="225" font-family="Arial, sans-serif" font-size="8" fill="#6b7280">Cupcakes</text>

  <!-- ========== TOP PRODUCTS CARD ========== -->
  <g filter="s1">
    <rect x="405" y="190" width="195" height="195" rx="14" fill="white" stroke="#f3f0fa" stroke-width="1"/>
  </g>
  <text x="425" y="216" font-family="Arial, sans-serif" font-size="12" font-weight="bold" fill="#1e1b4b">Top Productos</text>
  <text x="425" y="230" font-family="Arial, sans-serif" font-size="8" fill="#9ca3af">Más vendidos esta semana</text>

  <!-- Product 1: Pastel 3 Leches -->
  <rect x="422" y="242" width="36" height="36" rx="10" fill="#fef3c7"/>
  <!-- Mini cake -->
  <rect x="430" y="262" width="20" height="6" rx="2" fill="#f59e0b"/>
  <rect x="432" y="256" width="16" height="6" rx="2" fill="#fbbf24"/>
  <rect x="434" y="250" width="12" height="6" rx="2" fill="#fde68a"/>
  <circle cx="440" cy="249" r="2" fill="#ef4444"/>
  <text x="466" y="254" font-family="Arial, sans-serif" font-size="9" font-weight="600" fill="#1e1b4b">Pastel 3 Leches</text>
  <text x="466" y="267" font-family="Arial, sans-serif" font-size="8" fill="#9ca3af">87 vendidos</text>
  <text x="560" y="260" font-family="Arial, sans-serif" font-size="10" font-weight="bold" fill="#16a34a" text-anchor="end">$2,610</text>

  <!-- Product 2: Cupcakes Red Velvet -->
  <rect x="422" y="286" width="36" height="36" rx="10" fill="#fce7f3"/>
  <!-- Mini cupcake -->
  <path d="M434 310 l4 -8 h4 l4 8 z" fill="#ec4899"/>
  <ellipse cx="440" cy="302" rx="8" ry="5" fill="#fbcfe8"/>
  <ellipse cx="440" cy="300" rx="5" ry="3" fill="#f9a8d4"/>
  <circle cx="440" cy="298" r="2" fill="#fde68a"/>
  <text x="466" y="300" font-family="Arial, sans-serif" font-size="9" font-weight="600" fill="#1e1b4b">Cupcakes R.V.</text>
  <text x="466" y="313" font-family="Arial, sans-serif" font-size="8" fill="#9ca3af">124 vendidos</text>
  <text x="560" y="306" font-family="Arial, sans-serif" font-size="10" font-weight="bold" fill="#16a34a" text-anchor="end">$1,860</text>

  <!-- Product 3: Galletas Decoradas -->
  <rect x="422" y="330" width="36" height="36" rx="10" fill="#e0e7ff"/>
  <!-- Cookie -->
  <circle cx="440" cy="348" r="10" fill="#d4a574"/>
  <circle cx="436" cy="345" r="1.5" fill="#5b3a1a"/>
  <circle cx="443" cy="344" r="1.5" fill="#5b3a1a"/>
  <circle cx="440" cy="351" r="1.5" fill="#5b3a1a"/>
  <circle cx="436" cy="352" r="1" fill="#5b3a1a"/>
  <text x="466" y="344" font-family="Arial, sans-serif" font-size="9" font-weight="600" fill="#1e1b4b">Galletas Decor.</text>
  <text x="466" y="357" font-family="Arial, sans-serif" font-size="8" fill="#9ca3af">96 vendidos</text>
  <text x="560" y="350" font-family="Arial, sans-serif" font-size="10" font-weight="bold" fill="#16a34a" text-anchor="end">$1,440</text>

  <!-- ========== ROW 3: BOTTOM STATUS BAR ========== -->
  <g filter="s1">
    <rect x="50" y="400" width="550" height="68" rx="14" fill="white" stroke="#f3f0fa" stroke-width="1"/>
  </g>

  <!-- Status 1: Pedido listo -->
  <rect x="65" y="413" width="36" height="36" rx="10" fill="#dcfce7"/>
  <!-- Checkmark -->
  <circle cx="83" cy="431" r="9" fill="#22c55e"/>
  <path d="M78 431 l3 4 l7 -8" stroke="white" stroke-width="2" fill="none" stroke-linecap="round" stroke-linejoin="round"/>
  <text x="110" y="427" font-family="Arial, sans-serif" font-size="9" font-weight="bold" fill="#1e1b4b">Pedido #1247 listo</text>
  <text x="110" y="441" font-family="Arial, sans-serif" font-size="8" fill="#9ca3af">Pastel personalizado - Recoger 3:00 PM</text>

  <line x1="295" y1="412" x2="295" y2="456" stroke="#f3f0fa" stroke-width="1"/>

  <!-- Status 2: Inventario bajo -->
  <rect x="310" y="413" width="36" height="36" rx="10" fill="#fff7ed"/>
  <!-- Warning -->
  <circle cx="328" cy="431" r="9" fill="#f97316"/>
  <text x="328" y="435" font-family="Arial, sans-serif" font-size="13" font-weight="bold" fill="white" text-anchor="middle">!</text>
  <text x="355" y="427" font-family="Arial, sans-serif" font-size="9" font-weight="bold" fill="#1e1b4b">Stock bajo: Harina</text>
  <text x="355" y="441" font-family="Arial, sans-serif" font-size="8" fill="#9ca3af">Quedan 5 kg - Mínimo requerido: 20 kg</text>

  <!-- Mini sparkline in top-right -->
  <rect x="520" y="412" width="65" height="36" rx="8" fill="#f5f3ff"/>
  <text x="553" y="425" font-family="Arial, sans-serif" font-size="7" fill="#7c3aed" text-anchor="middle">Hoy</text>
  <text x="553" y="443" font-family="Arial, sans-serif" font-size="14" font-weight="bold" fill="#7c3aed" text-anchor="middle">$4.2k</text>

  <!-- ========== FLOATING ELEMENTS ========== -->

  <!-- Floating cupcake badge top-right -->
  <g filter="s1">
    <rect x="540" y="10" width="90" height="30" rx="15" fill="#7c3aed"/>
  </g>
  <text x="560" y="30" font-family="Arial, sans-serif" font-size="13" text-anchor="middle">🧁</text>
  <text x="595" y="29" font-family="Arial, sans-serif" font-size="9" fill="white" text-anchor="middle">12 nuevos</text>

  <!-- Floating mini card bottom-left -->
  <g filter="s1" transform="translate(-12, 10)">
    <rect x="28" y="460" width="95" height="42" rx="12" fill="white" stroke="#f3f0fa" stroke-width="1"/>
    <text x="48" y="480" font-family="Arial, sans-serif" font-size="8" fill="#9ca3af">Clientes</text>
    <text x="48" y="494" font-family="Arial, sans-serif" font-size="14" font-weight="bold" fill="#1e1b4b">1,842</text>
    <rect x="92" y="478" width="20" height="14" rx="4" fill="#dcfce7"/>
    <text x="102" y="489" font-family="Arial, sans-serif" font-size="7" fill="#16a34a" text-anchor="middle">↑</text>
  </g>
</svg>
